<svg id="Layer_1" enable-background="new 0 0 128 128" height="512" viewBox="0 0 128 128" width="512" xmlns="http://www.w3.org/2000/svg"><path d="m41.5 92.8c2-15.5-2.5-44.3-5-50.3 13.2 12.8 18.3 35.1 20.2 50.3" fill="#84b340"/><path d="m86.5 92.8c-2-15.5 2.5-44.3 5-50.3-13.2 12.8-18.3 35.1-20.2 50.3" fill="#84b340"/><g fill="#9ad14b"><path d="m72 92.8c.2-9.2-2.2-43.8-8-57.5-5.8 13.7-8.2 48.3-8 57.5"/><path d="m31.5 92.8c0-17.7-11.9-42.9-11.9-42.9 15.6 7.6 24.6 31 25.9 42.9"/><path d="m96.5 92.8c0-17.7 11.9-42.9 11.9-42.9-15.6 7.6-24.6 31-25.9 42.9"/><path d="m86.5 92.8h-4c.6-4.9 1.8-9.7 3.6-14.2-.2 3.9-.1 7.8.1 11.7.1.8.2 1.6.3 2.5z"/><path d="m86.5 92.8h-.6c.1-.8.2-1.7.4-2.6 0 .9.1 1.7.2 2.6z"/></g><path d="m121.5 94.5h-115c-1 0-1.8-.8-1.8-1.8s.8-1.7 1.8-1.7h115c1 0 1.8.8 1.8 1.8s-.8 1.7-1.8 1.7z" fill="#84b340"/></svg>